HIERARCHY
ROOT ui
{
	 OFFSET 0 0 0
	 CHANNELS 3 XPosition YPosition Z Position
	 EndSite
	 {
	 OFFSET 0 -1 0
	 }
}
ROOT li
{
	 OFFSET 0 0 0
	 CHANNELS 3 XPosition YPosition Z Position
	 EndSite
	 {
	 OFFSET 0 -1 0
	 }
}
ROOT ul
{
	 OFFSET 0 0 0
	 CHANNELS 3 XPosition YPosition Z Position
	 EndSite
	 {
	 OFFSET 0 -1 0
	 }
}
ROOT ll
{
	 OFFSET 0 0 0
	 CHANNELS 3 XPosition YPosition Z Position
	 EndSite
	 {
	 OFFSET 0 -1 0
	 }
}
ROOT tt
{
	 OFFSET 0 0 0
	 CHANNELS 3 XPosition YPosition Z Position
	 EndSite
	 {
	 OFFSET 0 -1 0
	 }
}
ROOT tb
{
	 OFFSET 0 0 0
	 CHANNELS 3 XPosition YPosition Z Position
	 EndSite
	 {
	 OFFSET 0 -1 0
	 }
}
ROOT td
{
	 OFFSET 0 0 0
	 CHANNELS 3 XPosition YPosition Z Position
	 EndSite
	 {
	 OFFSET 0 -1 0
	 }
}
ROOT v
{
	 OFFSET 0 0 0
	 CHANNELS 3 XPosition YPosition Z Position
	 EndSite
	 {
	 OFFSET 0 -1 0
	 }
}
ROOT bn
{
	 OFFSET 0 0 0
	 CHANNELS 3 XPosition YPosition Z Position
	 EndSite
	 {
	 OFFSET 0 -1 0
	 }
}
MOTION
Frames: 19
Frame Time: 0.002
2.0581899583339692E-4	3.420650064945221E-4	0		0.4699657287597656	-2.5890869140625	0		-1.0613597412109375	-0.1584141387939453	0		-0.8073255004882812	-2.494260009765625	0		1.041681884765625	-1.226785400390625	0		2.625301513671875	-0.40383905029296874	0		4.23310302734375	0.28457012939453125	0		5.82750927734375	0.430140869140625	0		-0.14047357177734374	5.925599609375	0		
-0.027494419097900392	0.005905106067657471	0		0.46808441162109377	-2.59306494140625	0		-1.0673157958984374	-0.16531558227539062	0		-0.7800038452148438	-2.488855224609375	0		1.04181396484375	-1.2298026123046875	0		2.638636474609375	-0.39712301635742187	0		4.2352900390625	0.28452685546875	0		5.8322822265625	0.4580578002929688	0		-0.13831619262695313	5.925533203125	0		
-0.023507970809936524	-0.0021879780292510987	0		0.4691957702636719	-2.596092529296875	0		-1.0682220458984375	-0.16831265258789063	0		-0.813759765625	-2.485159423828125	0		1.0302745361328125	-1.2155570068359376	0		2.632418212890625	-0.4149842834472656	0		4.239462890625	0.2854635925292969	0		5.85944921875	0.4585240173339844	0		-0.1362056427001953	5.9254794921875	0		
-0.01833018112182617	0.0017103639841079712	0		0.4713163452148437	-2.59612548828125	0		-1.0661258544921874	-0.1683610076904297	0		-0.8095987548828125	-2.48324755859375	0		1.03238134765625	-1.2155843505859374	0		2.63043408203125	-0.4189108276367188	0		4.24026123046875	0.2714924621582031	0		5.8599169921875	0.47658303833007815	0		-0.13417044067382813	5.92544091796875	0		
-0.01631707763671875	0.0016896359920501708	0		0.4515772705078125	-2.58568115234375	0		-1.1171617431640626	-0.17028416442871094	0		-0.7926616821289062	-2.488591796875	0		1.0463865966796875	-1.2168426513671875	0		2.6490087890625	-0.44024899291992187	0		4.24227099609375	0.271526611328125	0		5.88210791015625	0.485217041015625	0		-0.11509073638916016	5.932060546875	0		
-0.007277874946594238	0.0075399608612060545	0		0.5063965454101562	-2.59278369140625	0		-1.055068603515625	-0.16256166076660156	0		-0.7886653442382813	-2.486648193359375	0		1.04659375	-1.2037884521484374	0		2.6433095703125	-0.42204464721679685	0		4.247306640625	0.27752874755859375	0		5.900388671875	0.5029706420898438	0		-0.12747672271728516	5.9223525390625	0		
-0.012597631454467774	0.0017059789896011353	0		0.48027783203125	-2.591170166015625	0		-1.0603851318359374	-0.1684158172607422	0		-0.76577587890625	-2.485084716796875	0		1.041234619140625	-1.2126015625	0		2.646556884765625	-0.44901123046875	0		4.25972705078125	0.25940283203125	0		5.8954150390625	0.5142467041015625	0		-0.1277441177368164	5.92441015625	0		
-0.013996855735778808	-0.0021921999454498292	0		0.5048479309082031	-2.599599609375	0		-1.0627802734375	-0.1723167724609375	0		-0.7999654541015625	-2.481311767578125	0		1.033031494140625	-1.2083314208984375	0		2.648250732421875	-0.4489129028320312	0		4.23940966796875	0.25999725341796875	0		5.9131044921875	0.5150839233398438	0		-0.12619422149658202	5.92444580078125	0		
-0.009357772827148437	0.0018022140264511107	0		0.4536083679199219	-2.592423583984375	0		-1.057136962890625	-0.16837043762207032	0		-0.7875350341796875	-2.490501953125	0		1.0346190185546875	-1.208246337890625	0		2.676499755859375	-0.4643460693359375	0		4.2568095703125	0.25283319091796874	0		5.908857421875	0.5254186401367188	0		-0.1247917709350586	5.92450048828125	0		
-0.007933111190795898	0.0018793059587478638	0		0.4851441955566406	-2.59095849609375	0		-1.043939208984375	-0.17957171630859375	0		-0.7819548950195313	-2.486531982421875	0		1.0480556640625	-1.209388427734375	0		2.651256591796875	-0.44863092041015623	0		4.25208203125	0.2461618194580078	0		5.92978369140625	0.5502677612304687	0		-0.1225616912841797	5.9235537109375	0		
-0.0066413688659667965	0.0019747370481491087	0		0.46162985229492187	-2.585327880859375	0		-1.0426414794921874	-0.17951004028320314	0		-0.7523800659179688	-2.47704638671875	0		1.108415771484375	-1.208486572265625	0		2.68509814453125	-0.47113067626953126	0		4.262634765625	0.25920599365234376	0		5.93807666015625	0.5514108276367188	0		-0.12146288299560547	5.9236455078125	0		
-0.003648530960083008	-0.005952382087707519	0		0.5126632690429688	-2.59623486328125	0		-1.0573267822265624	-0.17210356140136718	0		-0.7881033325195312	-2.475192138671875	0		1.0416746826171874	-1.204922119140625	0		2.69639697265625	-0.46513076782226564	0		4.27551220703125	0.24622479248046875	0		5.94560986328125	0.570607177734375	0		-0.12051504516601562	5.92375390625	0		
-0.004452652931213379	0.0022163219451904297	0		0.485799072265625	-2.59550537109375	0		-1.0435008544921875	-0.18228271484375	0		-0.7510481567382813	-2.478839111328125	0		1.1076329345703124	-1.2110992431640626	0		2.690072509765625	-0.4827483825683594	0		4.274138671875	0.2275648193359375	0		5.95361572265625	0.5708211669921875	0		-0.11971482086181641	5.92387841796875	0		
-0.006632181167602539	-0.0015764479637145996	0		0.4868090515136719	-2.5953408203125	0		-1.042590576171875	-0.18218136596679688	0		-0.7859732055664063	-2.4749814453125	0		1.043703125	-1.204565185546875	0		2.667834716796875	-0.4900151062011719	0		4.27503173828125	0.22788601684570312	0		5.953515625	0.5722322998046875	0		-0.11709886169433593	5.92197705078125	0		
0.0021261019706726074	-0.002582329034805298	0		0.4746849365234375	-2.5958916015625	0		-1.0318455810546876	-0.18427349853515626	0		-0.76912939453125	-2.477186279296875	0		1.051720458984375	-1.1955067138671875	0		2.69821728515625	-0.5103545227050781	0		4.287634765625	0.21998576354980467	0		5.97443212890625	0.5802366333007812	0		-0.10139392852783204	5.93081982421875	0		
-0.0021058290004730223	0.0026936609745025633	0		0.495668212890625	-2.5861103515625	0		-1.1100123291015624	-0.17552032470703124	0		-0.7751045532226563	-2.464905517578125	0		1.0524385986328124	-1.19528515625	0		2.716415771484375	-0.485413818359375	0		4.28828857421875	0.22035400390625	0		5.99327197265625	0.5903084106445312	0		-0.11618101501464843	5.9222998046875	0		
-0.0015528709888458251	0.002881906032562256	0		0.4902188720703125	-2.5917744140625	0		-1.0405684814453124	-0.18180055236816406	0		-0.7425880737304688	-2.472409423828125	0		1.106953369140625	-1.2001572265625	0		2.687462890625	-0.5104982299804688	0		4.2918515625	0.22167886352539062	0		5.9899833984375	0.5998543090820313	0		-0.11590193176269531	5.92248291015625	0		
0.0037917630672454836	-0.0020173370838165285	0		0.489725830078125	-2.5945283203125	0		-1.04417236328125	-0.184563720703125	0		-0.7779562377929687	-2.468503662109375	0		1.1053961181640626	-1.2028619384765624	0		2.71988720703125	-0.512827392578125	0		4.2998984375	0.20291970825195313	0		5.98140576171875	0.6005183715820313	0		-0.11572760009765624	5.9226796875	0		
-0.0038362181186676024	-6.380450129508973E-4	0		0.49019277954101564	-2.59429052734375	0		-1.0509560546875	-0.1912505340576172	0		-0.7395233764648438	-2.4701005859375	0		1.1147164306640625	-1.20677978515625	0		2.711893310546875	-0.5303214721679688	0		4.29821875	0.20237063598632812	0		5.99291064453125	0.609777099609375	0		-0.115645263671875	5.92289013671875	0		
